<svg width="2125" height="1960" viewBox="0 0 2125 1960" fill="none" xmlns="http://www.w3.org/2000/svg">
<path d="M1116 93.1805L1230.5 93.1805L1693.5 554.04L1693.5 896.308L1693.5 1231.18L1609.5 1231.18L1609.5 623.681L1609.5 589.181L1116 93.1805Z" fill="black"/>
<path d="M1116.13 92.9013L1230.63 92.9012L1693.63 553.76L1693.64 896.029L1693.64 1230.9L1609.63 1230.9L1609.63 623.402L1609.63 588.902L1116.13 92.9013Z" fill="black"/>
<path d="M1112.5 89.6832L1229 89.6832L1697.63 554.762L1697.63 897.031L1697.63 1231.18L1613.63 1231.18L1613.63 624.403L1613.63 589.903L1112.5 89.6832Z" fill="black"/>
<path d="M215.904 1695.77L266.054 1786.12H218.116L173.129 1704.62H166.123H72.4605V1786.12H24.8919V1527.99H166.123C235.079 1527.99 263.104 1566.34 263.104 1616.49C263.104 1652.26 248.723 1681.76 215.904 1695.77ZM159.485 1570.03H72.4605V1662.59H159.485C196.729 1662.59 215.904 1649.68 215.904 1616.49C215.904 1583.31 196.729 1570.03 159.485 1570.03ZM494.37 1705.73H334.333C339.127 1736.7 359.039 1755.88 396.283 1755.88C418.039 1755.88 435.739 1748.87 443.851 1731.54H488.101C478.514 1765.84 444.22 1791.65 392.964 1791.65C324.745 1791.65 287.87 1747.03 287.87 1690.24C287.87 1633.82 325.114 1588.84 392.595 1588.84C458.233 1588.84 499.532 1631.24 494.37 1705.73ZM392.595 1623.5C357.564 1623.5 338.02 1642.31 333.964 1675.49H449.751C444.22 1638.99 424.308 1623.5 392.595 1623.5ZM577.252 1786.12H531.158V1594.37H575.777L577.252 1622.39L573.196 1632.72C586.102 1607.64 608.596 1588.84 649.896 1588.84C704.471 1588.84 731.389 1621.66 731.389 1676.23V1786.12H685.296V1685.08C685.296 1648.57 667.596 1629.4 633.302 1629.4C598.64 1629.4 577.252 1648.57 577.252 1685.08V1786.12ZM903.509 1594.37V1633.82H843.034V1718.64C843.034 1739.29 850.04 1746.66 871.796 1746.66H903.509V1787.96H863.315C812.796 1787.96 796.94 1765.1 796.94 1724.17V1633.82H754.903V1594.37H796.94V1535.37H843.034V1594.37H903.509ZM1045.33 1791.65H1044.96C996.658 1791.65 937.29 1782.43 932.865 1714.21H976.746C982.646 1744.45 1011.41 1752.56 1049.02 1752.56C1092.9 1752.56 1118.35 1741.13 1118.35 1711.26C1118.35 1686.55 1102.49 1678.44 1067.83 1675.12L1026.16 1671.44C967.896 1665.9 937.29 1643.78 937.29 1597.69C937.29 1550.12 970.846 1522.46 1051.6 1522.46C1103.96 1522.46 1158.17 1533.89 1162.23 1599.9H1118.35C1112.08 1570.77 1088.11 1561.55 1049.39 1561.55C1006.25 1561.55 985.227 1572.98 985.227 1597.69C985.227 1620.55 1002.93 1629.03 1036.11 1632.35L1077.41 1636.04C1137.15 1641.57 1166.65 1661.85 1166.65 1710.52C1166.65 1761.78 1131.99 1791.65 1045.33 1791.65ZM1321.44 1588.84C1380.07 1588.84 1417.69 1633.09 1417.69 1690.24C1417.69 1747.4 1380.07 1791.65 1321.44 1791.65C1291.57 1791.65 1266.13 1779.85 1251.01 1755.88V1839.22H1204.92V1594.37H1250.27L1251.01 1619.07L1242.9 1637.14C1260.97 1604.32 1287.15 1588.84 1321.44 1588.84ZM1311.49 1751.09C1349.47 1751.09 1372.33 1725.64 1372.33 1690.24C1372.33 1654.84 1349.47 1629.4 1311.49 1629.4C1273.87 1629.4 1250.27 1654.84 1250.27 1690.24C1250.27 1725.64 1273.87 1751.09 1311.49 1751.09ZM1511.67 1791.65C1468.16 1791.65 1443.45 1770.63 1443.45 1731.54C1443.45 1695.4 1464.1 1674.39 1513.15 1674.39H1590.95V1655.58C1590.95 1633.09 1579.89 1623.87 1543.38 1623.87C1509.83 1623.87 1497.66 1631.98 1495.81 1648.57H1454.88C1453.41 1602.11 1490.65 1588.84 1544.12 1588.84C1611.23 1588.84 1637.41 1609.86 1637.41 1651.16V1786.12H1597.96L1593.53 1757.72H1592.06C1576.94 1779.85 1544.86 1791.65 1511.67 1791.65ZM1526.42 1756.25H1529.37C1563.3 1756.25 1590.95 1737.44 1590.95 1714.95V1704.25H1520.15C1500.98 1704.25 1490.28 1712.37 1490.28 1729.33C1490.28 1745.92 1501.35 1756.25 1526.42 1756.25ZM1779.38 1791.65C1710.43 1791.65 1673.55 1746.29 1673.92 1690.24C1674.29 1634.19 1710.43 1588.84 1779.38 1588.84C1835.8 1588.84 1870.46 1619.81 1877.1 1665.9H1832.11C1825.48 1642.31 1806.3 1629.77 1779.38 1629.77C1741.03 1629.77 1719.28 1655.21 1719.28 1690.24C1719.28 1725.27 1741.03 1750.72 1779.38 1750.72C1806.3 1750.72 1825.48 1738.18 1832.11 1714.58H1877.1C1870.46 1760.67 1835.8 1791.65 1779.38 1791.65ZM2110.89 1705.73H1950.85C1955.64 1736.7 1975.56 1755.88 2012.8 1755.88C2034.56 1755.88 2052.26 1748.87 2060.37 1731.54H2104.62C2095.03 1765.84 2060.74 1791.65 2009.48 1791.65C1941.26 1791.65 1904.39 1747.03 1904.39 1690.24C1904.39 1633.82 1941.63 1588.84 2009.11 1588.84C2074.75 1588.84 2116.05 1631.24 2110.89 1705.73ZM2009.11 1623.5C1974.08 1623.5 1954.54 1642.31 1950.48 1675.49H2066.27C2060.74 1638.99 2040.83 1623.5 2009.11 1623.5Z" fill="black"/>
<path d="M439.5 336.182V418.682H578.5L943 259.182L1345.5 675.182L1345 1230.68H1345.5H1485.5V618.682L974.5 91.1816L439.5 336.182Z" fill="black"/>
<path d="M578 539.682H440H439.5V1233.18L1224 1231.44V1091.68L579 1093.18V539.682H578.5H578Z" fill="black"/>
</svg>
